<?xml version="1.0" encoding="UTF-8" standalone="no"?>
<svg
   width="32"
   height="32"
   viewBox="0 0 32 32"
   fill="none"
   version="1.1"
   id="svg5"
   sodipodi:docname="maya_desktop.svg"
   inkscape:version="1.3 (0e150ed6c4, 2023-07-21)"
   xmlns:inkscape="http://www.inkscape.org/namespaces/inkscape"
   xmlns:sodipodi="http://sodipodi.sourceforge.net/DTD/sodipodi-0.dtd"
   xmlns="http://www.w3.org/2000/svg"
   xmlns:svg="http://www.w3.org/2000/svg">
  <sodipodi:namedview
     id="namedview5"
     pagecolor="#ffffff"
     bordercolor="#000000"
     borderopacity="0.25"
     inkscape:showpageshadow="2"
     inkscape:pageopacity="0.0"
     inkscape:pagecheckerboard="0"
     inkscape:deskcolor="#d1d1d1"
     inkscape:zoom="23.75"
     inkscape:cx="16"
     inkscape:cy="16"
     inkscape:window-width="1920"
     inkscape:window-height="1014"
     inkscape:window-x="0"
     inkscape:window-y="35"
     inkscape:window-maximized="1"
     inkscape:current-layer="svg5" />
  <path
     d="M16.317 19.962C14.0707 19.962 12.2537 18.212 12.2537 16.014C12.2537 13.816 14.0707 12.052 16.317 12.052C18.5632 12.052 20.3373 13.816 20.3373 16.014C20.3373 18.212 18.5632 19.962 16.317 19.962"
     fill="url(#paint0_linear_5_77)"
     id="path1" />
  <path
     opacity="0.4"
     d="m 29.217696,19.325 c -0.2719,-0.42 -0.6582,-0.84 -1.1589,-1.106 -0.4006,-0.196 -0.6582,-0.518 -0.8871,-0.896 -0.7297,-1.204 -0.3004,-2.786 0.9157,-3.5 1.4307,-0.798 1.8886,-2.576 1.0587,-3.962 l -0.9585,-1.652 c -0.8156,-1.386 -2.604,-1.876 -4.0204,-1.064 -1.2591,0.672 -2.8758,0.224 -3.6055,-0.966 -0.2289,-0.392 -0.3577,-0.812 -0.3291,-1.232 0.043,-0.546 -0.1287,-1.064 -0.3863,-1.484 -0.5293,-0.868 -1.4879,-1.456 -2.5467,-1.456 h -2.0173 c -1.0445,0.028 -2.0031,0.588 -2.5324,1.456 -0.2719,0.42 -0.4293,0.938 -0.4006,1.484 0.0286,0.42 -0.1002,0.84 -0.3291,1.232 -0.7297,1.19 -2.3464303,1.638 -3.5911703,0.966 -1.43074,-0.812 -3.20486,-0.322 -4.03469,1.064 l -0.9586,1.652 c -0.81552,1.386 -0.35768,3.164 1.05875,3.962 1.21613,0.714 1.64535,2.296 0.92998,3.5 -0.24322,0.378 -0.50076,0.7 -0.90136,0.896 -0.48646,0.266 -0.91568,0.686 -1.1446,1.106 -0.52937,0.868 -0.50076,1.96 0.02862,2.87 l 0.98721,1.68 c 0.52937,0.896 1.51658,1.456 2.54672,1.456 0.48645,0 1.05874,-0.14 1.51658,-0.42 0.35769,-0.238 0.78691,-0.322 1.25905,-0.322 1.4164103,0 2.6039103,1.162 2.6326103,2.548 0,1.61 1.3162,2.87 2.9759,2.87 h 1.9458 c 1.6454,0 2.9616,-1.26 2.9616,-2.87 0.043,-1.386 1.2305,-2.548 2.6469,-2.548 0.4578,0 0.8871,0.084 1.2591,0.322 0.4578,0.28 1.0158,0.42 1.5165,0.42 1.0159,0 2.0031,-0.56 2.5325,-1.456 l 1.0015,-1.68 c 0.515,-0.938 0.558,-2.002 0.0286,-2.87"
     fill="url(#paint1_linear_5_77)"
     id="path2"
     style="fill:url(#paint1_linear_5_77)" />
  <defs
     id="defs5">
    <linearGradient
       id="paint0_linear_5_77"
       x1="12.8311"
       y1="16.007"
       x2="19.3876"
       y2="15.2665"
       gradientUnits="userSpaceOnUse">
      <stop
         stop-color="#8D01A2"
         id="stop2"
         offset="0"
         style="stop-color:#0152a2;stop-opacity:1;" />
      <stop
         offset="1"
         stop-color="#FF00D2"
         id="stop3"
         style="stop-color:#002aff;stop-opacity:1;" />
    </linearGradient>
    <linearGradient
       id="paint1_linear_5_77"
       x1="4.9"
       y1="16"
       x2="26.5118"
       y2="13.7312"
       gradientUnits="userSpaceOnUse"
       gradientTransform="translate(-0.00450428,0.007)">
      <stop
         stop-color="#8D01A2"
         id="stop4"
         offset="0"
         style="stop-color:#0152a2;stop-opacity:1;" />
      <stop
         offset="1"
         stop-color="#FF00D2"
         id="stop5"
         style="stop-color:#002aff;stop-opacity:1;" />
    </linearGradient>
  </defs>
</svg>
